<?xml version="1.0" encoding="utf-8"?>
<!-- Generator: Adobe Illustrator 26.4.1, SVG Export Plug-In . SVG Version: 6.00 Build 0)  -->
<svg version="1.1" id="Capa_2_00000168088897636051966020000011667987032690526642_"
	 xmlns="http://www.w3.org/2000/svg" xmlns:xlink="http://www.w3.org/1999/xlink" x="0px" y="0px" viewBox="0 0 945 80.8"
	 style="enable-background:new 0 0 945 80.8;" xml:space="preserve">
<style type="text/css">
	.st0{fill:#F6E0E0;}
	.st1{fill:#703D4A;}
	.st2{fill:#8A553A;}
</style>
<path class="st0" d="M945.2,42.5c0-0.3,0-0.5-0.1-0.8c0,0-3.5-4.4-3-11.5c1-10.9-2.8-17.5-10.3-18c-2.4-0.1-2.7-0.9-3.2-2.6
	c-1.1-3.1-2.8-6-11.7-6H28.7c-8.9,0-10.6,2.9-11.7,6c-0.6,1.6-0.8,2.5-3.2,2.6c-7.5,0.5-11.3,7.1-10.3,18c0.6,7-3,11.5-3,11.5
	c-0.4,0.5-0.4,1,0,1.6c0,0,3.5,4.4,3,11.5c-1,10.9,2.8,17.5,10.3,18c2.4,0.1,2.7,0.9,3.2,2.6c1.1,3.1,2.8,6,11.7,6h888
	c8.9,0,10.6-2.9,11.7-6c0.6-1.6,0.8-2.5,3.2-2.6c7.5-0.6,11.1-7.1,10.3-18c-0.6-7,3-11.5,3-11.5C945,43,945.2,42.7,945.2,42.5z"/>
<g id="Capa_2-2">
	<path class="st1" d="M945,42.5c0,0.3-0.1,0.5-0.3,0.8c0,0-3.5,4.5-3,11.5c0.8,10.9-2.8,17.4-10.3,18c-2.4,0.1-2.7,1-3.2,2.6
		c-1.1,3.1-2.8,6-11.7,6h-888c-8.9,0-10.6-2.9-11.7-6c-0.6-1.7-0.8-2.5-3.2-2.6c-7.5-0.5-11.3-7.1-10.3-18c0.6-7.1-3-11.5-3-11.5
		c-0.4-0.5-0.4-1,0-1.6c0,0,3.5-4.5,3-11.5c-1-10.9,2.8-17.5,10.3-18c2.4-0.1,2.7-1,3.2-2.6c1.1-3.1,2.8-6,11.7-6h888.1
		c8.9,0,10.6,2.9,11.7,6c0.6,1.7,0.8,2.5,3.2,2.6c7.5,0.5,11.3,7.1,10.3,18c-0.6,7.1,3,11.5,3,11.5C945,42,945,42.2,945,42.5
		L945,42.5z M938.9,53.1c0-5.3,2-9.1,3-10.6c-1.1-1.7-3.5-6.2-3-12.6c0.4-5.4,0-14.7-7.8-15.2c-4.4-0.3-5.1-2.6-5.8-4.4
		c-0.7-2.1-1.4-4.2-8.9-4.2h-888c-7.5,0-8.2,1.9-8.9,4.2c-0.7,1.8-1.4,4.2-5.8,4.4c-7.8,0.5-8.2,9.7-7.8,15.2
		c0.6,6.4-1.8,10.8-3,12.6c1.1,1.7,3.5,6.2,3,12.6c-0.4,5.4,0,14.7,7.8,15.2c4.4,0.3,5.1,2.6,5.8,4.4c0.7,2.1,1.4,4.2,8.9,4.2h888.1
		c7.5,0,8.2-1.9,8.9-4.2c0.6-1.8,1.4-4.2,5.8-4.4c7.8-0.5,8.2-9.7,7.8-15.2C938.9,54.4,938.9,53.8,938.9,53.1L938.9,53.1z"/>
	<path class="st2" d="M939.1,42.5L939.1,42.5c-1.1,2.3-2.5,5.9-2.5,10.6c0,0.6,0,1.3,0.1,1.9c0.1,0.9,0.1,1.8,0.1,2.7
		c0,6.4-1.8,9.7-5.5,10c-6.1,0.4-7.3,4.3-8,6.1c-0.6,1.7-1.1,2.5-6.5,2.5H28.5c-5.4,0-5.9-0.9-6.5-2.5c-0.6-1.8-2-5.6-8-6.1
		c-3.7-0.3-5.5-3.6-5.5-10c0-0.9,0-1.8,0.1-2.7c0-0.6,0.1-1.3,0.1-1.9c0-4.8-1.4-8.4-2.5-10.5c0-0.1,0-0.1,0-0.3
		c1.1-2.2,2.5-5.8,2.5-10.5c0-0.6,0-1.3-0.1-1.9c0-0.9-0.1-1.8-0.1-2.7c0-6.4,1.8-9.7,5.5-10c6.1-0.4,7.3-4.3,8-6.1
		c0.6-1.7,1.1-2.5,6.5-2.5h888.1c5.4,0,5.9,0.9,6.5,2.5c0.6,1.8,2,5.6,8,6.1c3.7,0.3,5.5,3.6,5.5,10c0,0.9,0,1.8-0.1,2.7
		c0,0.6-0.1,1.3-0.1,1.9c0,4.8,1.4,8.4,2.5,10.5C939.1,42.4,939.1,42.5,939.1,42.5L939.1,42.5z M935.7,53.1c0-4.8,1.4-8.4,2.5-10.6
		c-1.1-2.3-2.5-6-2.5-10.6c0-0.6,0-1.4,0.1-2.1c0.1-0.9,0.1-1.8,0.1-2.6c0-6-1.7-9.1-4.8-9.3c-6.5-0.5-7.9-4.5-8.6-6.5
		c-0.4-1.3-0.7-2.1-5.9-2.1H28.5c-5.1,0-5.4,0.8-5.8,2.1c-0.7,1.9-2.1,6.1-8.6,6.5c-3.2,0.3-4.8,3.4-4.8,9.3c0,0.9,0,1.7,0.1,2.6
		c0,0.6,0.1,1.4,0.1,2.1c0,4.8-1.4,8.4-2.5,10.6c1.1,2.3,2.5,6,2.5,10.6c0,0.6,0,1.4-0.1,2.1c0,0.9-0.1,1.8-0.1,2.6
		c0,6,1.7,9.1,4.8,9.3c6.5,0.5,7.9,4.5,8.6,6.5c0.4,1.3,0.7,2.1,5.8,2.1h888.1c5.1,0,5.4-0.8,5.8-2.1c0.7-1.9,2.1-6.1,8.6-6.5
		c3.2-0.3,4.8-3.4,4.8-9.3c0-0.8,0-1.7-0.1-2.6C935.7,54.6,935.7,53.9,935.7,53.1L935.7,53.1z"/>
</g>
</svg>
