<?xml version="1.0" encoding="UTF-8"?>
<svg id="Capa_2" data-name="Capa 2" xmlns="http://www.w3.org/2000/svg" viewBox="0 0 208.39 121.92">
  <defs>
    <style>
      .cls-1 {
        fill: #bc957f;
      }

      .cls-2 {
        fill: #bd9482;
      }

      .cls-3 {
        fill: #bd8470;
      }

      .cls-4 {
        fill: #723d4a;
      }

      .cls-5 {
        fill: #4f2c34;
      }

      .cls-6 {
        fill: #8c5636;
      }

      .cls-7 {
        fill: #401e14;
      }

      .cls-8 {
        fill: #4f2c35;
      }

      .cls-9 {
        fill: #733d4a;
      }

      .cls-10 {
        fill: #bc8571;
      }

      .cls-11 {
        fill: #bd8571;
      }

      .cls-12 {
        fill: #b98672;
      }

      .cls-13 {
        fill: #8c5538;
      }

      .cls-14 {
        fill: #421d16;
      }

      .cls-15 {
        fill: #dcbbaf;
      }

      .cls-16 {
        fill: #a69bbb;
      }
    </style>
  </defs>
  <g id="Layer_1" data-name="Layer 1">
    <path class="cls-4" d="M152.27,10.55c2.82-4.21,5.76-8.91,10.98-10.35,3.27,7.59,2.14,16.11,.69,23.99-.66,3.3-.78,7.03-2.95,9.76-8.56,3.8-17.27,7.29-25.51,11.74-2.07-1.89-4.19-3.73-6.37-5.49,8.78-9,16.06-19.32,23.16-29.65Z"/>
    <path class="cls-15" d="M107.34,33.63c3.84-.2,7.58,.98,11.24,2,3.64,1.15,7.49,2.13,10.53,4.57,2.18,1.76,4.3,3.6,6.37,5.49,2.98,2.85,5.99,5.69,8.64,8.86,.95,1.39,1.84,2.84,2.68,4.31,1.79,3.19,3.53,6.4,5.07,9.72,3.87,9.01,4.33,19.06,3.66,28.72-.93,8.79-7.62,16.19-15.47,19.71-6.52,2.13-13.03,5.08-20.03,4.9-9.6-.07-19.22,.07-28.8-.7,.03-.38,.08-1.15,.1-1.53-6.56-1.23-13.29-2.93-18.6-7.19-5.84-4.27-9.25-11.21-9.95-18.32-1.52-13.79,2.88-27.94,11.09-39.02,7.95-11.06,20.18-18.72,33.47-21.52Zm-6.15,9.49c-.17,1.71-.33,3.44-.49,5.17,6.83,1.3,13.5,3.45,20.46,4,.02-2,1.11-4.82-1.22-5.95-5.65-3.13-12.39-4.1-18.75-3.22Zm24.1,8.16c-5.36,2.88,1.87,11.21,5.92,7.13,2.07-3.25-2.12-8.28-5.92-7.13Zm-55.87,19.4c-4.15,1.22-5.37,7.36-1.99,10.09,3.23,3.03,9.74,1.15,10.01-3.56,.94-4.37-3.98-8.31-8.02-6.53Zm65.9-.22c-3.62,.73-5.3,5.15-3.89,8.37,1.59,4.31,8.67,4.67,10.61,.43,2.87-4.26-1.88-10.43-6.72-8.8Zm-64.76,27.38c-1.52,5.31,4.83,8.82,9.38,8.71,14.67,.19,29.36-.08,44.04,.1,3.94-.15,8.63,.27,11.67-2.77,2.11-1.76,1.3-4.72,1.45-7.08-4.51,.51-8.43,3.4-13.04,3.26-12.37-.06-24.74-.08-37.1-.03-3.15-.09-6.53,.22-9.37-1.39-2.19-.97-5.03-3.51-7.03-.8Z"/>
    <path class="cls-10" d="M101.19,43.12c6.36-.88,13.1,.09,18.75,3.22,2.33,1.13,1.24,3.95,1.22,5.95-6.96-.55-13.63-2.7-20.46-4,.16-1.73,.32-3.46,.49-5.17Z"/>
    <path class="cls-16" d="M.05,65.57c9.71-1.12,19.26,1.43,28.91,2.11,1.8,.19,3.6-.16,5.33-.64,6.18,3.22,13.47,1.25,20.11,2.41-1.44,9.45-3.74,19.14-1.54,28.67-6.86-2.61-14.22-3.68-20.91-6.77-10.22-4.09-19.95-9.61-28.23-16.89-2.65-2.21-4.01-5.46-3.67-8.89Z"/>
    <path class="cls-16" d="M187.58,66.76c6.89-.79,13.95-2.48,20.81-.52-.69,2.76-1.76,5.52-3.94,7.46-13.42,12.64-30.97,20.13-48.92,23.6,.67-9.66,.21-19.71-3.66-28.72,6.97,.19,13.96,.22,20.89-.56,4.95-.33,9.9-.56,14.82-1.26Z"/>
    <path class="cls-7" d="M135.32,70.46c4.84-1.63,9.59,4.54,6.72,8.8-1.94,4.24-9.02,3.88-10.61-.43-1.41-3.22,.27-7.64,3.89-8.37Z"/>
    <path class="cls-9" d="M44.97,0c2.97,1.63,5.72,3.74,7.61,6.6,7.97,11.79,16.34,23.36,25.94,33.89-2.42,1.76-4.76,3.63-6.98,5.64-7.69-5.09-16.23-8.87-25.06-11.47-3.11-8.73-4.61-18.11-3.98-27.37,.05-2.64,1.3-5.01,2.47-7.29Z"/>
    <path class="cls-1" d="M12.85,28.92c8.47,.56,14.74,6.79,21.95,10.48,5.02,2.47,9.53,6.35,15.21,7.18l.31,.3c3.54,3.76,8.58,5.41,13.12,7.59-4.02,3.56-9.71,2.96-14.69,3.08-7.52,.3-15.31-1.82-22.62,.65-5.05-6.29-9.42-13.22-12.25-20.8-1.07-2.7-1.01-5.64-1.03-8.48Z"/>
    <path class="cls-2" d="M186.28,31.47c2.56-1.7,5.66-2.05,8.65-2.33,.48,11-7.26,19.71-12.77,28.46l-.7-.07c-3.8-.48-7.64-.64-11.46-.48-7.75,.35-15.56,.26-23.2,1.81-.84-1.47-1.73-2.92-2.68-4.31,4.37-2.14,8.78-4.21,12.95-6.73,10.04-4.89,19.67-10.54,29.21-16.35Z"/>
    <path class="cls-3" d="M78.52,40.49c8.38-5.6,18.81-8.01,28.82-6.86-13.29,2.8-25.52,10.46-33.47,21.52-8.21,11.08-12.61,25.23-11.09,39.02,.7,7.11,4.11,14.05,9.95,18.32,5.31,4.26,12.04,5.96,18.6,7.19-.02,.38-.07,1.15-.1,1.53-9.37-.73-19.16-1.85-27.31-6.92-5.76-3.52-9.82-9.56-11.06-16.17-2.2-9.53,.1-19.22,1.54-28.67,2.63-3.41,4.77-7.17,6.59-11.07-4.07-.38-8.15-.72-12.24-.83,4.98-.12,10.67,.48,14.69-3.08,2.78-2.7,5.27-5.7,8.1-8.34,2.22-2.01,4.56-3.88,6.98-5.64Z"/>
    <path class="cls-5" d="M46.48,34.66c8.83,2.6,17.37,6.38,25.06,11.47-2.83,2.64-5.32,5.64-8.1,8.34-4.54-2.18-9.58-3.83-13.12-7.59-1.45-4.02-2.83-8.07-3.84-12.22Z"/>
    <path class="cls-8" d="M135.48,45.69c8.24-4.45,16.95-7.94,25.51-11.74-.41,4.85-2.53,9.27-3.92,13.87-4.17,2.52-8.58,4.59-12.95,6.73-2.65-3.17-5.66-6.01-8.64-8.86Z"/>
    <path class="cls-12" d="M125.29,51.28c3.8-1.15,7.99,3.88,5.92,7.13-4.05,4.08-11.28-4.25-5.92-7.13Z"/>
    <path class="cls-13" d="M26.13,58.2c7.31-2.47,15.1-.35,22.62-.65,4.09,.11,8.17,.45,12.24,.83-1.82,3.9-3.96,7.66-6.59,11.07-6.64-1.16-13.93,.81-20.11-2.41-2.73-2.94-5.3-6.03-8.16-8.84Z"/>
    <path class="cls-6" d="M146.8,58.86c7.64-1.55,15.45-1.46,23.2-1.81,3.82-.16,7.66,0,11.46,.48-2.82,3.56-5.83,6.96-8.7,10.49-6.93,.78-13.92,.75-20.89,.56-1.54-3.32-3.28-6.53-5.07-9.72Z"/>
    <path class="cls-14" d="M69.42,70.68c4.04-1.78,8.96,2.16,8.02,6.53-.27,4.71-6.78,6.59-10.01,3.56-3.38-2.73-2.16-8.87,1.99-10.09Z"/>
    <path class="cls-11" d="M70.56,97.84c2-2.71,4.84-.17,7.03,.8,2.84,1.61,6.22,1.3,9.37,1.39,12.36-.05,24.73-.03,37.1,.03,4.61,.14,8.53-2.75,13.04-3.26-.15,2.36,.66,5.32-1.45,7.08-3.04,3.04-7.73,2.62-11.67,2.77-14.68-.18-29.37,.09-44.04-.1-4.55,.11-10.9-3.4-9.38-8.71Z"/>
  </g>
</svg>