<?xml version="1.0" encoding="utf-8"?>
<!-- Generator: Adobe Illustrator 26.4.1, SVG Export Plug-In . SVG Version: 6.00 Build 0)  -->
<svg version="1.1" id="Capa_2_00000070823560254377443170000018391538114837143460_"
	 xmlns="http://www.w3.org/2000/svg" xmlns:xlink="http://www.w3.org/1999/xlink" x="0px" y="0px" viewBox="0 0 60 95.9"
	 style="enable-background:new 0 0 60 95.9;" xml:space="preserve">
<style type="text/css">
	.st0{fill:#F6E0E0;}
	.st1{fill:#703D4A;}
	.st2{fill:#8A553A;}
	.st3{fill:#3E1F18;}
</style>
<path class="st0" d="M30,145.6c-0.2,0-0.4-0.1-0.6-0.2c0,0-3.5-2.5-8.9-2.1c-8.4,0.6-13.4-2-13.9-7.3c-0.1-1.7-0.8-1.9-2-2.3
	c-2.4-0.8-4.6-2-4.6-8.3V-37.4c0-6.3,2.2-7.5,4.6-8.3c1.3-0.4,1.9-0.6,2-2.3c0.4-5.3,5.5-8,13.9-7.3c5.5,0.4,8.9-2.1,8.9-2.1
	c0.4-0.3,0.8-0.3,1.2,0c0,0,3.5,2.5,8.9,2.1c8.4-0.7,13.5,2,13.9,7.3c0.1,1.7,0.8,1.9,2,2.3c2.4,0.8,4.6,2,4.6,8.3v162.9
	c0,6.3-2.2,7.5-4.6,8.3c-1.3,0.4-1.9,0.6-2,2.3c-0.4,5.3-5.5,8-13.9,7.3c-5.5-0.4-8.9,2.1-8.9,2.1C30.4,145.6,30.2,145.6,30,145.6
	L30,145.6z"/>
<path class="st1" d="M30,145.5c-0.2,0-0.4-0.1-0.6-0.2c0,0-3.5-2.5-8.9-2.1c-8.4,0.6-13.4-2-13.9-7.3c-0.1-1.7-0.8-1.9-2-2.3
	c-2.4-0.8-4.6-2-4.6-8.3V-37.5c0-6.3,2.2-7.5,4.6-8.3c1.3-0.4,1.9-0.6,2-2.3c0.4-5.3,5.5-8,13.9-7.3c5.5,0.4,8.9-2.1,8.9-2.1
	c0.4-0.3,0.8-0.3,1.2,0c0,0,3.5,2.5,8.9,2.1c8.4-0.7,13.5,2,13.9,7.3c0.1,1.7,0.8,1.9,2,2.3c2.4,0.8,4.6,2,4.6,8.3v162.9
	c0,6.3-2.2,7.5-4.6,8.3c-1.3,0.4-1.9,0.6-2,2.3c-0.4,5.3-5.5,8-13.9,7.3c-5.5-0.4-8.9,2.1-8.9,2.1C30.4,145.5,30.2,145.5,30,145.5
	L30,145.5z M21.8,141.2c4.1,0,7,1.4,8.2,2.1c1.3-0.8,4.8-2.5,9.7-2.1c4.2,0.3,11.3,0,11.7-5.5c0.2-3.1,2-3.6,3.4-4.1
	c1.6-0.5,3.2-1,3.2-6.3V-37.5c0-5.3-1.5-5.8-3.2-6.3c-1.4-0.5-3.2-1-3.4-4.1c-0.4-5.5-7.5-5.8-11.7-5.5c-4.9,0.4-8.3-1.3-9.7-2.1
	c-1.3,0.8-4.8,2.5-9.7,2.1c-4.2-0.3-11.3,0-11.7,5.5c-0.2,3.1-2,3.6-3.4,4.1c-1.6,0.5-3.2,1-3.2,6.3v162.9c0,5.3,1.5,5.8,3.2,6.3
	c1.4,0.4,3.2,1,3.4,4.1c0.4,5.5,7.5,5.8,11.7,5.5C20.8,141.2,21.3,141.2,21.8,141.2L21.8,141.2z"/>
<path class="st2" d="M30,141.3h-0.1c-1.7-0.8-4.5-1.8-8.1-1.8c-0.5,0-1,0-1.5,0.1c-0.7,0.1-1.4,0.1-2.1,0.1c-4.9,0-7.5-1.3-7.7-3.9
	c-0.3-4.3-3.3-5.2-4.7-5.7c-1.3-0.4-1.9-0.8-1.9-4.6v-163c0-3.8,0.7-4.2,1.9-4.6c1.4-0.4,4.3-1.4,4.7-5.7c0.2-2.6,2.8-3.9,7.7-3.9
	c0.7,0,1.4,0,2.1,0.1c0.5,0,1,0.1,1.5,0.1c3.7,0,6.5-1,8.1-1.8c0.1,0,0.1,0,0.2,0c1.7,0.8,4.5,1.8,8.1,1.8c0.5,0,1,0,1.5-0.1
	c0.7,0,1.4-0.1,2.1-0.1c4.9,0,7.5,1.3,7.7,3.9c0.3,4.3,3.3,5.2,4.7,5.7c1.3,0.4,1.9,0.8,1.9,4.6v162.9c0,3.8-0.7,4.2-1.9,4.6
	c-1.4,0.4-4.3,1.4-4.7,5.7c-0.2,2.6-2.8,3.9-7.7,3.9c-0.7,0-1.4,0-2.1-0.1c-0.5,0-1-0.1-1.5-0.1c-3.7,0-6.5,1-8.1,1.8
	C30.1,141.3,30,141.3,30,141.3L30,141.3z M21.8,138.9c3.7,0,6.5,1,8.2,1.8c1.8-0.8,4.6-1.8,8.2-1.8c0.5,0,1.1,0,1.6,0.1
	c0.7,0.1,1.4,0.1,2,0.1c4.6,0,7-1.2,7.2-3.4c0.4-4.6,3.5-5.6,5-6.1c1-0.3,1.6-0.5,1.6-4.2V-37.5c0-3.6-0.6-3.8-1.6-4.1
	c-1.5-0.5-4.7-1.5-5-6.1c-0.2-2.3-2.6-3.4-7.2-3.4c-0.7,0-1.3,0-2,0.1c-0.5,0-1.1,0.1-1.6,0.1c-3.7,0-6.5-1-8.2-1.8
	c-1.8,0.8-4.6,1.8-8.2,1.8c-0.5,0-1.1,0-1.6-0.1c-0.7,0-1.4-0.1-2-0.1c-4.6,0-7,1.2-7.2,3.4c-0.4,4.6-3.5,5.6-5,6.1
	c-1,0.3-1.6,0.5-1.6,4.1v162.9c0,3.6,0.6,3.8,1.6,4.1c1.5,0.5,4.7,1.5,5,6.1c0.2,2.3,2.6,3.4,7.2,3.4c0.6,0,1.3,0,2-0.1
	C20.7,138.9,21.2,138.9,21.8,138.9L21.8,138.9z"/>
<path class="st3" d="M24.3-26.9c1.2-2.3,3.9-3.5,6.5-3.1c0.2,0.9,0.1,1.9,0,2.8c-0.5,0-0.9,0-1.4,0c0-0.5,0-0.9,0-1.4
	c0.3,0.3,0.5,0.7,0.8,1c0-0.6-0.1-1.2-0.1-1.8c-1.2,0.1-2.5,0.2-3.4,1.2c-1.1,1.4-1.3,3.4-1.2,5.1c0.1,1.7,0.5,3.6,1.8,4.8
	c1.1,1,2.7,1,4.1,0.8c1.2-0.2,2.2-1.1,2.7-2.2c0.7-1.6,0.7-3.3,0.6-5c-0.1-1.6-0.8-3.3-2.3-4.1c-0.5-0.2-0.7-0.7-0.8-1.2
	c2.1,0.1,4.1,1.6,4.8,3.6c0.5,1.5,0.6,3.2,0.2,4.8c-0.5,2.3-2.3,4.3-4.6,4.7c-1.2,0.2-2.4,0.3-3.6,0.1c-1.7-0.3-3.3-1.4-4.1-3
	C23.2-22,23.2-24.7,24.3-26.9L24.3-26.9z"/>
<path class="st3" d="M26.8,41.7c1-0.4,2-0.4,3-0.4c0,1,0,2,0,3c-0.5,0-1.1-0.1-1.6-0.1c0-0.4,0-0.8,0.1-1.2c0.1,0,0.3,0,0.4,0
	c0.1,0.3,0.2,0.6,0.3,0.9c0-0.6,0-1.1,0-1.7c-0.8,0.1-1.6,0.1-2.3,0.2c0.2-0.2,0.5-0.4,0.7-0.7C27.3,41.7,27,41.7,26.8,41.7
	L26.8,41.7z"/>
<path class="st3" d="M26.1,73.8c1.1-0.7,2.5-0.7,3.8-0.7c0,1,0,1.9,0,2.9c-0.5,0-1,0-1.6,0c0.1-0.5,0.1-1,0.2-1.4
	c0.2,0.4,0.4,0.8,0.7,1.1c0-0.6,0.1-1.2,0.1-1.8c-0.3,0-0.7,0-1,0c-0.6,0.1-1.2,0.3-1.8,0.4c0.2-0.2,0.3-0.4,0.5-0.6
	C26.7,73.7,26.4,73.7,26.1,73.8L26.1,73.8z"/>
<path class="st3" d="M30.6,41.5c2.1,0.1,4,1.5,4.7,3.5c0.5,1.4,0.5,2.9,0.3,4.4c-0.4,1.9-1.5,3.9-3.3,4.7c-1.6,0.8-3.5,0.8-5.3,0.5
	c-2.4-0.4-4.1-2.6-4.4-4.9c-0.3-2.2,0-4.7,1.6-6.4c0.7-0.7,1.6-1.3,2.6-1.5c0.2,0,0.5,0,0.7,0c-0.2,0.2-0.5,0.4-0.7,0.7
	c-0.7,0.6-1.5,1.2-1.8,2.1c-0.6,1.7-0.6,3.5-0.4,5.2c0.2,1.7,1.1,3.4,2.8,4c1.2,0.4,2.6,0.4,3.8,0c1.6-0.7,2.3-2.5,2.4-4.2
	c0.1-1.9,0.1-4-1-5.7c-0.5-0.8-1.3-1.2-2.1-1.6C30.6,42,30.6,41.7,30.6,41.5L30.6,41.5z"/>
<path class="st3" d="M30.6,73.2c1.7,0,3.4,1,4.3,2.5c1,1.6,1.1,3.5,0.8,5.3c-0.3,1.7-1.1,3.4-2.6,4.4c-1.6,1-3.5,1.2-5.3,1
	c-2.2-0.2-4.2-1.8-4.8-3.9c-0.7-2.3-0.6-5.1,0.9-7.1c0.6-0.8,1.3-1.6,2.3-1.8c0.3,0,0.6,0,0.9-0.1c-0.2,0.2-0.3,0.4-0.5,0.6
	c-0.8,0.9-1.6,1.9-1.7,3.1c-0.3,2-0.3,4,0.5,5.9c0.5,1.3,1.7,2.3,3.1,2.4c1.3,0.2,2.8,0.1,3.8-0.9c1.2-1,1.5-2.7,1.6-4.3
	c0.1-1.9-0.1-3.9-1.3-5.4C31.8,74.5,30.5,74.4,30.6,73.2L30.6,73.2z"/>
<path class="st3" d="M28-14.2c1.8-0.7,3.9-0.5,5.8-0.2c-0.1,1-0.2,2.1-0.6,3.1c-0.5-0.7-0.5-1.6-1-2.3c-1.2-0.7-3.2-0.5-4,0.8
	c-0.6,1-0.2,2.5,0.9,3c1.6,1,3.7,1.4,4.8,3c1,1.7,0,4.2-1.9,4.9c-1.9,0.6-4,0.3-6-0.1c0-1.1,0.1-2.2,0.3-3.2c0.5,0,1.1,0,1.6,0
	c-0.1,0.4-0.1,0.9-0.2,1.3c-0.2-0.2-0.3-0.5-0.5-0.7l-0.4-0.1c0.2,0.7,0.3,1.5,0.5,2.2c1.1,0.2,2.2,0.4,3.3,0.2
	c1.5-0.4,2.2-2.5,1.1-3.6c-1-1.1-2.6-1.4-3.8-2.1c-0.7-0.5-1.5-1-1.8-1.9C25.5-11.6,26.3-13.6,28-14.2L28-14.2z"/>
<path class="st3" d="M25.7,57.1c1.2,0,2.5,0,3.7,0c0.1,4.2,0.1,8.5,0,12.7c-1.1,0.1-2.2,0.2-3.2-0.1c0.3-0.2,0.6-0.4,0.9-0.5
	c0.1-0.1,0.4-0.2,0.5-0.2c0.1-2.4,0-4.8,0.1-7.2c0-1.4,0-2.8-0.2-4.1c-0.4,0-0.8,0-1.2-0.1c0,0.6,0,1.2,0.1,1.8
	c0.3-0.3,0.6-0.6,0.8-0.8c0,0.4,0,0.8,0,1.2c-0.3,0-0.6,0.1-0.9,0.1c-0.2,0-0.5,0-0.6,0.1C25.7,59.1,25.7,58.1,25.7,57.1L25.7,57.1z
	"/>
<path class="st3" d="M27.6,118.8c1.7-0.5,3.5-0.2,5.3,0c-0.1,1-0.2,1.9-0.6,2.8c-0.1,0-0.2,0-0.3,0.1c-0.3-0.7-0.3-1.6-0.8-2.2
	c-0.8-0.4-1.9-0.5-2.8-0.1c-1.1,0.4-1.8,1.9-1.2,3c0.5,1.1,1.7,1.5,2.7,1.9c1.2,0.5,2.6,1.2,3.2,2.5c0.7,1.7-0.3,3.8-2,4.5
	c-1.9,0.7-4,0.3-6,0c-0.1-1.1,0.1-2.2,0.4-3.3c0.5,0,1.1,0,1.6,0.1c-0.1,0.4-0.2,0.9-0.2,1.3c-0.3-0.3-0.6-0.5-0.9-0.8
	c0.1,0.7,0.3,1.4,0.5,2.1c1.1,0.2,2.3,0.4,3.4,0.1c1.4-0.4,2-2.4,1-3.5c-1.4-1.5-3.8-1.5-5.1-3.1c-0.8-0.9-0.9-2.3-0.5-3.4
	C25.6,119.8,26.6,119.1,27.6,118.8L27.6,118.8z"/>
<path class="st3" d="M24.9-44.9c1.2,0,2.4,0,3.6,0l0,0.2c-0.9,0-1.7,0-2.6,0c0,0.1,0.1,0.2,0.2,0.3l-0.5,0.4c0,0.5,0,0.9,0,1.4
	c0.3-0.3,0.5-0.5,0.8-0.8c0.1,0.4,0.2,0.8,0.3,1.2c-0.6,0.1-1.1,0.2-1.7,0.2C24.9-43,24.9-44,24.9-44.9L24.9-44.9z"/>
<path class="st3" d="M29.8,11.7c0.4-0.1,0.9-0.1,1,0.4c1.4,3.6,2.5,7.3,4.1,10.9c0.3,0.7,1,1.1,1.5,1.5c-1.5,0.1-3,0.1-4.4,0
	c0.4-0.3,0.7-0.6,1-1c-0.2-1.3-0.8-2.5-1.2-3.7c-1.2,0-2.4,0-3.6,0c0.1-0.3,0.2-0.5,0.3-0.8c1-0.1,2-0.1,3-0.1
	c-0.4-1.6-1-3.2-1.7-4.7c-0.7,1.4-1.3,3-1.9,4.5c-0.6,1.5-1.2,2.9-1.8,4.4c-0.2,0.5-0.4,1.1-0.9,1.4c-0.7,0.2-1.3,0.1-2,0.2
	c0-0.9,0-1.7,0-2.6c0.5,0,1,0,1.4,0c0,0.4,0,0.8,0,1.3c-0.3-0.3-0.5-0.5-0.8-0.8c0,0.5,0,1,0,1.5c0.7-0.2,1.1-0.8,1.3-1.5
	c1.2-3.2,2.7-6.2,3.9-9.4C29.3,12.7,29.5,12.2,29.8,11.7L29.8,11.7z"/>
<path class="st3" d="M31.1,27c1.4-0.2,2.8-0.1,4.2-0.1c0,0.1-0.1,0.3-0.1,0.4c-2.1,0.9-2.8,3.2-4.2,4.8c-0.1-0.3-0.5-0.7-0.3-1.1
	c0.5-1.1,1.7-2,1.7-3.4C31.9,27.4,31.5,27.2,31.1,27z"/>
<path class="st3" d="M24.4,88.7c2.1,0,4.2,0,6.3,0c0.1,4-0.1,8,0.1,12c0.5,0.2,1,0.4,1.6,0.6c-1.7,0.4-3.4,0.3-5.1,0.1
	c0.5-0.3,1.1-0.5,1.6-0.7c0-3.7,0-7.4,0-11.1c-1.1,0-2.1,0-3.2,0c-0.2,0.7-0.4,1.3-0.5,2c0.3-0.3,0.5-0.5,0.8-0.8
	c0,0.5-0.1,0.9-0.1,1.4c-0.4,0-0.8,0-1.2-0.1C24.3,91,24.5,89.8,24.4,88.7L24.4,88.7z"/>
<path class="st3" d="M31.5,88.7c1.3,0,2.6,0,3.9,0c-0.1,1.1-0.2,2.2-0.5,3.3c-0.1,0-0.2,0-0.3,0c-0.3-0.8-0.4-1.6-0.6-2.3
	c-0.8,0-1.7-0.1-2.5-0.1C31.5,89.2,31.5,89,31.5,88.7z"/>
<path class="st3" d="M28.5,103.8c1.7,0,3.3-0.1,5,0c-0.1,0.9-0.3,1.8-0.5,2.8l-0.5,0c-0.2-0.6-0.3-1.3-0.5-1.9
	c-1.2,0-2.4-0.1-3.5-0.1C28.5,104.3,28.5,104,28.5,103.8L28.5,103.8z"/>
<path class="st3" d="M25.9-44.7c0.9,0,1.7,0,2.6,0h0.2c0,4.2,0,8.3,0,12.5c-1.1,0.1-2.2,0.2-3.3-0.1c0.4-0.2,0.9-0.4,1.3-0.6
	c0.3-1.3,0.2-2.6,0.2-3.8c0-2.4,0-4.8-0.1-7.2c-0.3-0.2-0.5-0.4-0.8-0.5C26-44.5,26-44.7,25.9-44.7z"/>
<path class="st3" d="M24,26.9c1.6-0.1,3.1-0.1,4.7,0c-0.4,0.3-0.8,0.7-1.2,1c2.1,3.3,4.4,6.5,6.6,9.8c0.5,0.8,1.3,1.3,2,1.8
	c-1.6,0.2-3.2,0.1-4.7,0c0.3-0.3,0.7-0.6,0.9-1c-0.2-0.7-0.6-1.2-1-1.7C30.7,36,30.1,35,29.5,34c-1.4,1.6-2.3,3.5-3.5,5.2
	c-0.5,0.8-1.5,0.4-2.3,0.5c0-0.9-0.1-1.7-0.1-2.6c0.5,0,0.9,0,1.4,0c0,0.5,0,0.9,0,1.4c-0.3-0.2-0.5-0.5-0.8-0.7c0,0.5,0,1-0.1,1.5
	c1.1-0.6,1.7-1.7,2.4-2.7c0.7-1.1,1.6-2.2,2.2-3.4C28,31.7,27,30.3,26,28.9C25.5,28.1,24.7,27.5,24,26.9L24,26.9z"/>
<path class="st3" d="M24.5,103.8c1.1-0.1,2.2-0.1,3.2,0c0.1,1.9,0,3.9,0.1,5.8c0,0.2,0,0.5,0,0.7c0,1.8-0.1,3.6,0,5.4
	c1.5,0,2.9,0,4.4,0c0.2-0.4,0.4-0.9,0.7-1.3c0.2-0.2,0.3-0.3,0.5-0.5c0.1,0.3,0.1,0.7,0.1,1c0,0.6-0.1,1.2-0.1,1.7
	c-2.9,0-5.9,0-8.8,0c0-0.1,0-0.3,0.1-0.5c0.4-0.1,0.8-0.3,1.3-0.4c0-2.9,0-5.8,0-8.7c0-0.7,0.1-1.5-0.1-2.2
	C25.5,104.4,25,104.1,24.5,103.8L24.5,103.8z"/>
<path class="st3" d="M31.4,108.3c0.1,0,0.4-0.1,0.5-0.1c0.1,1.2,0,2.4,0,3.6c-0.1,0-0.4,0-0.6,0c-0.1-0.5-0.2-0.9-0.3-1.4
	c-1.1,0-2.2,0-3.2-0.1c0-0.2,0-0.5,0-0.7c1,0,2.1,0,3.1-0.1C31.1,109.1,31.2,108.7,31.4,108.3L31.4,108.3z"/>
<path class="st3" d="M33.1-33.1c0.5-0.8,0.9-1.7,1.5-2.4c0.2,1.1,0.1,2.3-0.1,3.4c-1.7,0.1-3.4,0.1-5.1,0c0-0.2,0-0.6,0-0.8
	C30.7-33,31.9-32.9,33.1-33.1L33.1-33.1z"/>
<path class="st3" d="M33.9,69c0.4-0.9,0.9-1.8,1.4-2.6c0.2,1.1,0.1,2.3,0,3.5c-1.7,0.1-3.4,0.1-5.1,0c0-0.3,0-0.6,0-0.9
	C31.5,69.1,32.7,69.1,33.9,69L33.9,69z"/>
<path class="st3" d="M31.9,113.2c0.6,0,1.2,0,1.8,0c0,0.5-0.1,1-0.2,1.6c0-0.3-0.1-0.7-0.1-1c-0.2,0.2-0.3,0.3-0.5,0.5
	c-0.1-0.1-0.2-0.4-0.3-0.5c-0.2,0.3-0.5,0.5-0.7,0.8C31.9,114.2,31.9,113.7,31.9,113.2L31.9,113.2z"/>
</svg>
