<?xml version="1.0" encoding="UTF-8"?>
<svg xmlns="http://www.w3.org/2000/svg" xmlns:xlink="http://www.w3.org/1999/xlink" viewBox="0 0 48 48" width="48px" height="48px">
<g id="surface140072026">
<path style=" stroke:none;fill-rule:nonzero;fill:rgb(27.843139%,18.431373%,20%);fill-opacity:1;" d="M 37 4 C 33.132812 4 30 7.132812 30 11 C 30 16.25 36.125 18.855469 36.125 25 C 36.125 25.480469 36.519531 25.90625 37 25.90625 C 37.480469 25.90625 37.945312 25.550781 37.945312 25.070312 C 37.941406 18.921875 44 16 44 11 C 44 7.132812 40.863281 4 37 4 Z M 10 6 C 7.789062 6 6 7.789062 6 10 L 6 38 C 6 40.210938 7.789062 42 10 42 L 38 42 C 40.210938 42 42 40.210938 42 38 L 42 24 C 42 24 41.75 28.75 38 30 L 38 35.171875 L 26.828125 24 L 30.289062 20.539062 L 27.835938 17.335938 L 10 35.171875 L 10 10 L 26 10 C 26.25 7.5 27.25 6 27.25 6 Z M 37.066406 8.597656 C 38.355469 8.597656 39.402344 9.640625 39.402344 10.929688 C 39.402344 12.21875 38.355469 13.265625 37.066406 13.265625 C 35.777344 13.265625 34.734375 12.21875 34.734375 10.929688 C 34.734375 9.640625 35.777344 8.597656 37.066406 8.597656 Z M 17.003906 12 C 14.238281 12 12 14.238281 12 17 C 12 19.761719 14.238281 22 17.003906 22 C 21.203125 22 22.125 18.074219 21.714844 16.125 L 17.003906 16.121094 L 17.003906 18.03125 L 19.722656 18.03125 C 19.367188 19.1875 18.402344 20.015625 17.003906 20.015625 C 15.339844 20.015625 13.984375 18.667969 13.984375 17 C 13.984375 15.335938 15.339844 13.984375 17.003906 13.984375 C 17.75 13.984375 18.433594 14.257812 18.960938 14.710938 L 20.371094 13.304688 C 19.480469 12.496094 18.300781 12 17.003906 12 Z M 24 26.828125 L 35.171875 38 L 12.828125 38 Z M 24 26.828125 "/>
</g>
</svg>
