<?xml version="1.0" encoding="UTF-8"?>
<svg xmlns="http://www.w3.org/2000/svg" viewBox="0 0 702.6 165.84">
  <defs>
    <style>
      .cls-1 {
        fill: #3e1f18;
      }

      .cls-2 {
        fill: #401d15;
      }

      .cls-3 {
        fill: #b2877b;
      }

      .cls-4 {
        fill: #411e16;
      }

      .cls-5 {
        fill: #ad8c87;
      }

      .cls-6 {
        fill: #b3877e;
      }

      .cls-7 {
        fill: #ba8674;
      }

      .cls-8 {
        fill: #bb8572;
      }

      .cls-9 {
        fill: #b58778;
      }

      .cls-10 {
        fill: #bf846e;
      }

      .cls-11 {
        fill: #dbbaaf;
      }

      .cls-12 {
        fill: #ac8881;
      }

      .cls-13 {
        fill: #bb8571;
      }

      .cls-14 {
        fill: #372024;
      }

      .cls-15 {
        fill: #bc8471;
      }

      .cls-16 {
        fill: #4f2c35;
      }

      .cls-17 {
        fill: #be8470;
      }

      .cls-18 {
        fill: #ba8573;
      }

      .cls-19 {
        fill: #bf846f;
      }

      .cls-20 {
        fill: #bc9480;
      }

      .cls-21 {
        fill: #8d5535;
      }

      .cls-22 {
        fill: #502d36;
      }

      .cls-23 {
        fill: #d1ccd9;
      }

      .cls-24 {
        fill: #723d49;
      }

      .cls-25 {
        fill: #bc8472;
      }

      .cls-26 {
        fill: #b98572;
      }

      .cls-27 {
        fill: #3d1e19;
      }

      .cls-28 {
        fill: #a79bbc;
      }

      .cls-29 {
        fill: #3e1e18;
      }

      .cls-30 {
        fill: #b48a89;
      }

      .cls-31 {
        fill: #b4877d;
      }

      .cls-32 {
        fill: #372025;
      }

      .cls-33 {
        fill: #b98677;
      }

      .cls-34 {
        fill: #3d1f18;
      }

      .cls-35 {
        fill: #3c1f1b;
      }

      .cls-36 {
        fill: #3d1e1b;
      }

      .cls-37 {
        fill: #af8b83;
      }

      .cls-38 {
        fill: #3f1f18;
      }

      .cls-39 {
        fill: #3c1f19;
      }

      .cls-40 {
        fill: #3d1e18;
      }

      .cls-41 {
        fill: #b78777;
      }

      .cls-42 {
        fill: #3c1f1a;
      }
    </style>
  </defs>
  <g id="Capa_1" data-name="Capa 1">
    <path class="cls-39" d="M356.77,37.79c.91-.07,1.83-.13,2.75-.19,3.69,10.63,7.42,21.26,11.5,31.76,.54,1.32,1,2.7,1.81,3.89,1.43,1.02,3.09,1.68,4.6,2.59-4.95,.53-9.96,.44-14.91,.04,1.33-.93,2.74-1.72,4.14-2.53-1.13-3.79-2.47-7.52-3.78-11.24-3.56,0-7.12,.02-10.68-.02,.18-.59,.54-1.8,.72-2.4,2.99-.06,5.98-.02,8.98-.08-1.56-4.85-3.31-9.63-5.11-14.4-4.64,9.94-8.2,20.36-12.7,30.37-2.34,.46-4.72,.61-7.1,.58-.04-2.42-.04-4.83-.05-7.24,1.53-.06,3.06-.1,4.6-.12-.1,1.39-.22,2.79-.35,4.18-.79-1.03-1.55-2.09-2.35-3.1-.02,1.73,0,3.46,.08,5.2,1.29-.74,2.79-1.39,3.28-2.93,4.88-11.44,9.63-22.95,14.58-34.36Z"/>
    <path class="cls-40" d="M419.7,41.99c5.21-4.27,12.45-5.44,18.97-4.34,5.35,.87,10.4,4.42,12.39,9.56,3.1,7.56,2.35,16.86-2.73,23.4-2.31,3.36-6.2,4.96-9.98,6.03,0-.51,.02-1.52,.03-2.03,6.74-1.97,8.49-9.75,8.58-15.9,.22-6.18-.81-13.58-6.39-17.27-5.26-2.95-12.99-2.97-17.23,1.75-3.37,4.34-3.8,10.15-3.69,15.45,.29,5.09,1.65,10.81,6.05,13.93,2.83,2.31,6.63,2.33,10.09,2.53,.81,2.32,1.77,4.86,3.97,6.22,3.67,2.35,8.34,2.38,12.46,1.35,.52-1.2,.35-2.56,.5-3.82-.89,.96-1.74,1.95-2.62,2.92-.04-1.34-.03-2.68-.02-4.02l4.38,.02c-.2,2.22,.91,5.17-1.33,6.65-4.11,2.99-10.24,4.69-14.68,1.39-2.95-1.86-4.48-5.03-5.94-8.06-2.55-1.22-5.58-.97-8.16-2.22-4.67-1.79-8.42-5.8-9.66-10.68-2.08-7.74-1.17-17.17,4.99-22.87Z"/>
    <path class="cls-35" d="M455.51,37.72c3.64-.07,7.28-.05,10.93-.03,.21,8.87-.13,17.75,.37,26.61,.33,3.37,1.55,7.34,5.04,8.63,3.98,1.41,8.92,1.13,12.36-1.51,2.97-2.82,3.26-7.26,3.28-11.11-.11-6.77,.2-13.56-.18-20.32-1.48-.58-2.95-1.19-4.28-2.07,4.22-.34,8.55-.58,12.74,.2-1.5,.73-3.04,1.34-4.56,2.01-.12,6.99,.04,13.98-.06,20.97-.19,4.49-1.21,9.43-4.79,12.49-3.98,3.01-9.34,3.44-14.12,2.7-3.88-.68-7.79-2.94-9.4-6.67-1.59-3.42-1.41-7.29-1.44-10.97-.04-6.2,.18-12.42-.2-18.61-1.3-.36-2.61-.7-3.9-1.03,.02,1.78,.07,3.57,.2,5.36,.77-1.03,1.52-2.06,2.32-3.06,.08,1.44,.15,2.89,.21,4.34-1.51-.03-3.01-.07-4.52-.12,.02-2.6,0-5.21,0-7.81Z"/>
    <g>
      <path class="cls-27" d="M535.74,39.08c5.54-2.27,11.79-1.5,17.51-.36-.54,3-.99,6.02-1.86,8.95-1.84-2.06-1.49-5.28-3.18-7.27-3.89-1.32-9.44-1.37-11.73,2.69-1.93,3.14-.57,7.33,2.53,9.13,4.47,2.53,9.88,3.74,13.44,7.7,4.08,4.57,1.76,12.65-3.68,15.07-6.05,2.7-12.87,1.44-19.11,.19,.46-3.19,.95-6.37,1.39-9.56,1.61-.03,3.22-.04,4.83,0-.07,1.44-.12,2.88-.57,4.26-.86-1.19-1.67-2.4-2.59-3.53,.21,2.43,.67,4.85,1.47,7.15,3.44,1.21,7.47,1.64,10.88,.11,3.94-1.95,4.87-8.1,1.39-10.93-4.6-3.84-11.5-4.29-15.23-9.3-3.52-4.78-.87-12.19,4.51-14.3Z"/>
      <path class="cls-27" d="M497.93,38.3c3.33-.34,6.69-.25,10.05-.19,.22,5.83,.04,11.65,.11,17.49,2.95-.05,5.91,.12,8.86-.07,1.15-1.52,1.66-3.41,2.66-5.03,.82,4.12,.59,8.38,.13,12.54-1.13-1.55-1.83-3.33-2.34-5.16-3.09-.08-6.18-.07-9.27,0-.11,5.29-.06,10.58,.04,15.87,4.28-.04,8.56-.03,12.84,.03,.9-1.96,1.81-3.93,2.64-5.92-.42,0-1.27,0-1.69,0-.53,.91-1.08,1.82-1.63,2.71-.11-1.43-.15-2.87-.15-4.3,1.83,.07,3.67,.11,5.52,.2-.33,3.23-.66,6.48-.9,9.72-8.94-.29-17.93,.47-26.83-.41,1.51-.86,3.18-1.45,4.55-2.53,.16-10.85,.02-21.69,.06-32.54-1.6-.72-3.17-1.48-4.64-2.43Z"/>
    </g>
    <path class="cls-42" d="M625.94,37.98c.92-.19,1.85-.37,2.78-.56,4.07,11.38,7.96,22.82,12.43,34.05,.81,2.56,3.65,3.15,5.69,4.41-5.05,.46-10.17,.51-15.21-.04,1.41-.81,2.86-1.55,4.32-2.27-1-3.86-2.42-7.59-3.68-11.38-3.54-.11-7.09-.08-10.63-.04,.14-.6,.42-1.82,.55-2.42,3-.07,6.01-.06,9.01-.11-1.57-4.88-3.3-9.71-5.16-14.5-4.25,9.35-7.72,19.03-11.74,28.47-1.07,3.4-5.33,2.35-8.03,2.59-.02-2.41,0-4.82,0-7.23,1.46-.08,2.92-.15,4.39-.2,.03,1.43,.04,2.86,.03,4.3-.9-1.04-1.73-2.13-2.57-3.19,0,1.65,0,3.3,.06,4.96,1.65-.34,2.99-1.38,3.5-3.02,4.73-11.29,9.47-22.57,14.27-33.83Z"/>
    <path class="cls-36" d="M653.08,39.87c5.68-3.35,12.65-2.22,18.85-1.3-.42,2.88-.85,5.79-1.56,8.62-.28-.08-.83-.24-1.11-.32-.73-2.16-1.19-4.38-1.8-6.57-3-.49-6.21-1.18-9.13,0-3.61,1.37-5.29,6.42-2.93,9.56,2.09,3.12,5.96,3.94,9.13,5.52,3.45,1.63,7.2,3.86,8.47,7.68,1.17,4.71-1.25,10.17-5.81,12.07-5.96,2.49-12.63,1.28-18.75,.07,.45-3.23,.87-6.45,1.44-9.66,1.53,.02,3.07,.03,4.62,.05,.02,1.35,0,2.71,0,4.07-1.05-1.03-2.07-2.1-3.11-3.13,.29,2.33,.63,4.72,1.61,6.89,3.26,1.27,7.06,1.61,10.39,.37,4.25-1.59,5.52-8.19,1.91-11.06-4.45-3.75-10.94-4.26-14.84-8.77-3.77-4.16-2.11-11.38,2.62-14.1Z"/>
    <path class="cls-1" d="M289.01,38.38c3.63-.12,7.31-.42,10.92,.13,4.37,9.55,8.03,19.42,12.52,28.92,3.95-8.6,7.29-17.46,11.24-26.07-.08,3.02,.55,6.23-.67,9.11-3.11,7.44-6.32,14.84-9.35,22.31-.66,1.4-1.11,3.19-2.84,3.58-2.69-4.07-3.95-8.9-6.05-13.28-2.69-5.9-4.77-12.07-7.76-17.82-.48,10.19,0,20.4-.25,30.59-2.97,.1-5.95,.11-8.91,.24,0-2.41,0-4.82,.02-7.23,1.52,0,3.05,0,4.57,.03-.07,1.34-.16,2.68-.27,4.03-.84-1-1.65-2.02-2.48-3.01,0,1.63,0,3.27,.02,4.91,1.25-.36,2.5-.72,3.76-1.08,.11-11.05,.14-22.1,0-33.15-1.59-.53-3.15-1.17-4.47-2.21Z"/>
    <g>
      <path class="cls-34" d="M325.61,38.09c3.32,.02,6.72-.38,9.93,.69-1.47,.68-2.98,1.3-4.49,1.88,.04,10.85-.11,21.71,.07,32.55,1.3,1.21,3.06,1.75,4.57,2.68-4.69,.46-9.41,.26-14.12,.2,.12-.31,.36-.92,.47-1.23,1.12-.31,2.26-.63,3.39-.95,.29-11.94-.07-23.88,.18-35.83Z"/>
      <path class="cls-34" d="M558.09,38.31c4.8,.1,9.74-.75,14.46,.37-1.43,.72-2.9,1.36-4.37,1.97,.06,11.02-.16,22.05,.13,33.07,1.25,.29,2.52,.57,3.79,.86-.04-1.96-.09-3.92-.5-5.84-.26,.8-.78,2.4-1.04,3.2-.31-.11-.92-.31-1.23-.41,.07-1.17,.14-2.32,.23-3.48,1.42-.02,2.84-.03,4.28-.07,.04,2.66,.03,5.32,.04,7.99-5.26-.45-10.52,.13-15.77-.26,1.31-1.03,2.85-1.67,4.43-2.19,.29-10.92,.02-21.85,.13-32.77-1.56-.76-3.12-1.5-4.58-2.43Z"/>
    </g>
    <path class="cls-29" d="M377.52,38.69c3.78-1.1,7.74-.48,11.61-.75,4.33-.11,9.1-.43,12.88,2.09,4.16,2.75,4.38,9.04,1.67,12.87-1.56,2.42-4.33,3.5-6.82,4.69,2.72,4.28,5.44,8.56,8.22,12.79,1.02,1.65,2.4,3.02,3.98,4.15,.14-1.87,.21-3.76,.23-5.63-.85,1.03-1.65,2.1-2.49,3.15-.11-1.2-.15-2.39-.12-3.58,1.06-1.14,2.94-.46,4.35-.77,.08,2.84,.09,5.7-.02,8.54-2.96,0-6.4,.69-8.92-1.25-5.48-5.38-7.08-13.71-13.36-18.37,2.94-.63,6.46-.34,8.82-2.54,2.43-3.05,2.62-7.75,.73-11.1-2.35-3.55-7.08-2.75-10.72-2.77-.16,11.05-.03,22.11-.07,33.16,1.44,.67,2.88,1.36,4.12,2.37-4.75,.31-9.54,.42-14.28-.07,1.47-.9,3.05-1.64,4.63-2.34,0-10.82,.14-21.66-.06-32.47-1.23-1.09-2.97-1.37-4.38-2.16Z"/>
    <path class="cls-14" d="M510.04,38.3c4.92-.02,9.84-.08,14.76-.26-.56,3.1-.97,6.26-2.09,9.22-1.02-2.16-1.68-4.45-2.33-6.73-3.45-.03-6.89-.03-10.34,0,0-.56,0-1.67,0-2.22Z"/>
    <path class="cls-38" d="M578.96,37.92c6.29,.29,12.6,.07,18.9,.16,.21,11.64-.07,23.3,.12,34.95,1.52,1.17,3.41,1.71,5.08,2.66-5.22,.42-10.48,.42-15.69-.02,1.58-.92,3.26-1.67,4.94-2.39,.18-10.99,.02-21.98,.09-32.98-3.18-.02-6.35-.02-9.53,0-.6,2.33-1.22,4.67-1.63,7.06,.73-1.17,1.44-2.34,2.19-3.49,.2,1.44,.41,2.89,.55,4.36-1.53-.02-3.06-.02-4.58-.06-.15-3.43-.25-6.85-.45-10.28Z"/>
    <path class="cls-32" d="M599.79,38.07c3.94,.02,7.87,.05,11.81-.16-.54,3.52-.7,7.2-2.25,10.47-.84-2.66-1.43-5.38-2.07-8.08-2.51,.02-5.02,.02-7.52,.02l.03-2.25Z"/>
    <path class="cls-25" d="M325.89,108.68c3.61-6.97,11.94-10.47,19.54-9.35,.5,2.83,.2,5.72,0,8.57-1.41-.03-2.82-.05-4.22-.07,.03-1.42,.08-2.85,.11-4.27,.79,1.05,1.62,2.07,2.43,3.11-.13-1.77-.26-3.55-.33-5.32-3.59,.25-7.72,.6-10.18,3.59-3.48,4.32-3.84,10.2-3.73,15.53,.17,5.19,1.45,10.88,5.56,14.4,3.34,2.93,8.15,3.1,12.32,2.42,3.66-.51,6.78-3.19,8.18-6.56,2.02-4.76,2.03-10.07,1.68-15.14-.38-4.89-2.54-10.1-7.1-12.47-1.51-.6-2.1-2.01-2.34-3.51,6.49,.17,12.3,4.82,14.41,10.86,1.56,4.64,1.75,9.72,.7,14.51-1.51,6.87-7.08,12.9-14.07,14.32-3.59,.72-7.33,.77-10.95,.24-5.15-1.02-10.05-4.27-12.3-9.12-3.23-6.76-3.02-15.05,.28-21.74Z"/>
    <path class="cls-30" d="M502.28,100.22c2.92-1.18,6.1-1.26,9.2-1.26,.1,3.03,.12,6.06,.01,9.08-1.61-.09-3.2-.18-4.8-.27,.08-1.22,.15-2.45,.22-3.66,.32-.02,.97-.06,1.29-.07,.34,.87,.68,1.74,1.04,2.61,.03-1.73,.06-3.45,.09-5.19-2.37,.18-4.73,.45-7.08,.71,.72-.67,1.43-1.36,2.14-2.04-.53,.02-1.58,.06-2.11,.08Z"/>
    <path class="cls-12" d="M574.73,101.13c3.48-1.99,7.56-2.1,11.46-1.99,.03,2.9,.06,5.8,.09,8.7-1.58,.02-3.15,.05-4.71,.07,.17-1.47,.37-2.93,.63-4.39,.6,1.16,1.29,2.29,1.97,3.41,.13-1.84,.24-3.68,.36-5.52-1.06,.03-2.13,.06-3.18,.13-1.9,.16-3.73,.79-5.55,1.29,.52-.63,1.04-1.25,1.57-1.88-.88,.04-1.77,.1-2.64,.17Z"/>
    <path class="cls-13" d="M513.63,99.56c6.28,.33,12.2,4.62,14.32,10.57,1.5,4.24,1.65,8.87,1.06,13.3-1.08,5.89-4.55,11.67-10.07,14.35-4.92,2.48-10.7,2.52-16.02,1.58-7.16-1.31-12.53-7.92-13.39-14.98-.89-6.76,.03-14.37,4.89-19.53,2.2-2.1,4.84-4,7.86-4.64,.53-.02,1.58-.06,2.11-.08-.71,.68-1.42,1.36-2.14,2.04-2.11,1.86-4.42,3.71-5.39,6.46-1.85,5.05-1.81,10.61-1.18,15.88,.67,5.08,3.48,10.36,8.51,12.21,3.72,1.13,7.9,1.28,11.56-.14,4.84-2.17,6.89-7.68,7.35-12.63,.45-5.78,.28-12.07-2.91-17.13-1.42-2.37-3.93-3.68-6.31-4.89-.08-.8-.17-1.59-.25-2.38Z"/>
    <g>
      <path class="cls-8" d="M588.29,99.59c5.25,.15,10.27,3.05,12.89,7.63,2.93,4.75,3.27,10.6,2.54,16.02-.8,5.25-3.45,10.42-7.94,13.42-4.78,3-10.66,3.68-16.17,3.1-6.53-.72-12.6-5.36-14.48-11.74-2.13-7.02-1.74-15.31,2.63-21.42,1.81-2.34,3.98-4.77,6.98-5.46,.88-.08,1.76-.13,2.64-.17-.53,.63-1.05,1.25-1.57,1.88-2.47,2.64-4.75,5.67-5.28,9.36-.89,5.92-.9,12.25,1.53,17.84,1.63,3.86,5.24,6.96,9.5,7.38,3.97,.49,8.55,.33,11.62-2.59,3.71-3.16,4.51-8.33,4.74-12.94,.19-5.64-.23-11.9-4-16.42-1.77-2.15-5.68-2.48-5.61-5.86Z"/>
      <path class="cls-8" d="M373,101.63c5.59-2.15,11.76-1.49,17.53-.51-.19,3.14-.63,6.29-1.72,9.26-1.41-2.11-1.63-4.77-2.91-6.92-3.77-2.22-9.72-1.61-12.11,2.38-1.86,3.13-.47,7.5,2.68,9.22,4.87,2.89,11.07,4.16,14.51,9.04,3.13,5.25,.07,12.87-5.67,14.78-5.86,1.95-12.21,1.05-18.11-.22,.03-3.28,.42-6.55,1.05-9.77,1.63-.01,3.26-.02,4.9-.01-.17,1.29-.33,2.59-.51,3.88-.53-.73-1.05-1.46-1.56-2.19l-1.22-.31c.47,2.23,.95,4.47,1.42,6.7,3.24,.65,6.62,1.23,9.9,.49,4.53-1.07,6.59-7.6,3.29-10.98-3.15-3.29-7.85-4.14-11.62-6.46-2.23-1.38-4.44-3.15-5.46-5.64-1.7-4.85,.74-10.83,5.6-12.74Z"/>
      <path class="cls-8" d="M531.77,100.55c3.75,.06,7.51,.06,11.27,.15,.43,12.8,.23,25.63,.14,38.45-3.27,.42-6.6,.52-9.83-.17,.88-.56,1.76-1.11,2.72-1.5,.41-.17,1.23-.51,1.64-.68,.37-7.28,.1-14.58,.17-21.87,.06-4.18-.11-8.37-.65-12.51-1.2-.08-2.39-.15-3.59-.22,.08,1.78,.14,3.56,.22,5.35,.83-.85,1.67-1.71,2.51-2.55,0,1.24-.01,2.5-.01,3.75-.88,.09-1.76,.18-2.63,.28-.46,.05-1.37,.15-1.83,.19-.16-2.88-.17-5.78-.15-8.66Z"/>
      <path class="cls-8" d="M685.25,101.01c5.21-1.42,10.67-.66,15.92,.13-.33,2.88-.57,5.85-1.71,8.56-.22,.05-.65,.15-.88,.2-.94-2.16-.99-4.72-2.36-6.66-2.57-1.3-5.82-1.41-8.52-.42-3.48,1.29-5.41,5.68-3.7,9.04,1.42,3.36,5.18,4.46,8.23,5.82,3.75,1.65,7.88,3.67,9.67,7.6,2.14,5.14-.77,11.62-6.01,13.49-5.86,2.07-12.22,.95-18.2,.08-.21-3.41,.44-6.78,1.24-10.07,1.61,.08,3.21,.15,4.82,.24-.23,1.31-.46,2.62-.68,3.93-.88-.79-1.75-1.57-2.63-2.34,.37,2.15,.85,4.29,1.38,6.41,3.39,.61,6.96,1.25,10.33,.19,4.14-1.36,5.94-7.36,2.88-10.59-4.21-4.64-11.43-4.66-15.53-9.47-2.57-2.68-2.8-6.84-1.48-10.16,1.17-3.09,4.15-5.13,7.24-5.99Z"/>
    </g>
    <path class="cls-37" d="M291.12,100.52c3.66,.06,7.31,.06,10.97,.08l-.06,.63c-2.66-.02-5.3-.07-7.94-.13,.12,.22,.35,.66,.47,.88l-1.5,1.14c-.03,1.38-.06,2.75-.08,4.14,.81-.81,1.63-1.63,2.44-2.43,.31,1.26,.63,2.51,.91,3.78-1.7,.33-3.42,.54-5.14,.72-.19-2.93-.2-5.87-.06-8.79Z"/>
    <path class="cls-7" d="M428.32,100.56c1.25-.3,2.73-.35,3.09,1.19,4.18,10.93,7.67,22.15,12.28,32.93,.88,2.11,2.93,3.3,4.64,4.67-4.49,.33-8.99,.31-13.48-.01,1.08-.97,2.24-1.86,3.14-3-.51-3.91-2.37-7.47-3.73-11.13-3.65-.07-7.3-.1-10.94,0,.26-.82,.54-1.64,.8-2.45,3.01-.19,6.02-.32,9.03-.39-1.15-4.88-2.92-9.59-5.1-14.09-2.25,4.35-3.85,8.99-5.68,13.52-1.77,4.47-3.75,8.86-5.41,13.37-.69,1.49-1.25,3.37-2.87,4.1-1.97,.54-4.05,.4-6.08,.52-.05-2.58-.06-5.15-.06-7.73,1.45-.02,2.9-.03,4.35-.02-.01,1.27-.03,2.56-.06,3.84-.79-.76-1.58-1.54-2.36-2.29,.01,1.49,.04,3,.1,4.5,2.14-.63,3.45-2.39,4.07-4.46,3.66-9.61,8.24-18.83,11.93-28.43,.66-1.59,1.21-3.3,2.35-4.63Z"/>
    <path class="cls-9" d="M475.06,101.02c4.18-.7,8.43-.44,12.64-.38-.07,.3-.21,.9-.28,1.2-6.39,2.62-8.49,9.83-12.87,14.62-.38-1.05-1.6-2.1-.9-3.25,1.61-3.48,5.14-6.17,5.05-10.3-1.23-.61-2.45-1.23-3.64-1.89Z"/>
    <path class="cls-26" d="M608.2,100.52c6.36-.06,12.71-.06,19.07,.05,.22,12.09-.34,24.2,.28,36.27,1.58,.59,3.16,1.21,4.71,1.89-5.07,1.24-10.37,.93-15.49,.3,1.53-.95,3.2-1.65,4.91-2.21,.05-11.19,0-22.38,.05-33.57-3.19-.06-6.38-.08-9.56-.07-.6,2.03-1.14,4.08-1.64,6.14,.82-.77,1.65-1.54,2.48-2.3-.06,1.42-.16,2.85-.25,4.27-1.22-.09-2.44-.13-3.64-.33-1.33-3.29-.68-6.98-.92-10.45Z"/>
    <path class="cls-3" d="M629.72,100.49c3.91-.02,7.82,0,11.73,.06-.31,3.34-.49,6.75-1.6,9.94-.21-.02-.62-.06-.83-.08-.83-2.3-1.31-4.71-1.93-7.07-2.5-.09-5-.19-7.49-.31,.03-.85,.08-1.7,.12-2.54Z"/>
    <path class="cls-31" d="M657.39,100.93c5.05,0,10.09-.42,15.15-.12-.44,2.81-.97,5.6-1.53,8.39l-1.5-.06c-.51-1.9-1.02-3.79-1.51-5.68-3.57-.13-7.13-.19-10.69-.21,.02-.58,.06-1.74,.08-2.33Z"/>
    <path class="cls-18" d="M294.08,101.09c2.64,.06,5.29,.11,7.94,.13h.6c-.03,12.64-.04,25.27,.02,37.9-3.32,.43-6.75,.74-9.96-.4,1.31-.58,2.65-1.09,3.93-1.73,.95-3.81,.61-7.76,.64-11.65,.02-7.25-.09-14.51-.28-21.76-.81-.54-1.62-1.08-2.42-1.61-.12-.22-.35-.66-.47-.88Z"/>
    <path class="cls-15" d="M453.5,100.94c4.75-.36,9.52-.38,14.26,0-1.17,1.04-2.36,2.05-3.54,3.08,6.42,10.08,13.35,19.82,19.89,29.81,1.45,2.4,3.91,3.82,6.11,5.42-4.76,.47-9.56,.34-14.33,.14,.97-.99,2.02-1.93,2.86-3.04-.52-1.98-1.86-3.6-2.95-5.28-1.95-2.84-3.73-5.79-5.69-8.61-4.09,4.82-6.83,10.61-10.49,15.75-1.49,2.41-4.68,1.17-7.01,1.43-.15-2.62-.22-5.25-.23-7.87,1.37,0,2.75,0,4.12-.01,.02,1.37,.04,2.75,.05,4.12-.79-.72-1.56-1.43-2.33-2.14-.08,1.47-.13,2.93-.16,4.41,3.37-1.69,5.11-5.13,7.16-8.1,2.25-3.41,4.71-6.7,6.75-10.25-2.4-4.53-5.49-8.61-8.33-12.87-1.59-2.43-3.91-4.21-6.15-5.99Z"/>
    <path class="cls-17" d="M645.39,100.99c3.26-.38,6.55-.38,9.83-.09,.22,5.87,.03,11.75,.16,17.62,0,.52,.01,1.57,.02,2.09,0,5.47-.18,10.95,0,16.42,4.44-.07,8.9,.12,13.34-.15,.63-1.33,1.16-2.74,2.14-3.85,.49-.54,.99-1.06,1.52-1.58,.16,1,.31,2,.44,3.01,.06,1.74-.21,3.49-.38,5.23-8.91-.09-17.82-.04-26.73-.05,.04-.34,.13-1.03,.17-1.38,1.27-.38,2.54-.76,3.81-1.14,.15-8.79-.1-17.59,.06-26.37-.01-2.25,.17-4.52-.22-6.74-1.17-1.27-2.74-2.07-4.15-3.03Z"/>
    <path class="cls-6" d="M666.08,114.53c.39-.06,1.17-.18,1.56-.24,.16,3.66,.13,7.31,0,10.97-.42-.03-1.26-.09-1.68-.12-.27-1.42-.54-2.84-.79-4.27-3.27-.04-6.53-.1-9.78-.26,0-.52-.01-1.57-.02-2.09,3.16,0,6.33-.08,9.5-.22,.4-1.26,.8-2.51,1.2-3.77Z"/>
    <path class="cls-33" d="M315.84,136.22c1.65-2.36,2.7-5.09,4.55-7.32,.63,3.47,.19,6.99-.22,10.45-5.1,.24-10.2,.19-15.31,.01,0-.59,.03-1.78,.04-2.38,3.63-.42,7.4,.13,10.94-.77Z"/>
    <path class="cls-41" d="M556.58,136.58c1.21-2.71,2.59-5.35,4.36-7.74,.75,3.48,.39,7.03-.05,10.52-5.13,.22-10.27,.23-15.4,0,.04-.9,.09-1.79,.14-2.67,3.65,.13,7.3,0,10.95-.1Z"/>
    <path class="cls-5" d="M667.76,129.62c1.86,.02,3.71,.05,5.57,.08-.15,1.58-.3,3.18-.5,4.76-.14-1.01-.28-2.01-.44-3.01-.52,.51-1.03,1.04-1.52,1.58-.19-.36-.57-1.08-.76-1.43-.74,.79-1.49,1.58-2.24,2.37-.06-1.45-.09-2.9-.12-4.34Z"/>
  </g>
  <g id="Capa_4" data-name="Capa 4">
    <g>
      <ellipse class="cls-23" cx="16.6" cy="56.99" rx="7.79" ry="4.05"/>
      <ellipse class="cls-23" cx="25.89" cy="71.44" rx="7.79" ry="4.05" transform="translate(-14.54 7.1) rotate(-12.22)"/>
      <ellipse class="cls-23" cx="35.37" cy="83.81" rx="7.79" ry="4.05" transform="translate(-26.3 16.94) rotate(-19.8)"/>
      <ellipse class="cls-23" cx="59.53" cy="48.78" rx="7.79" ry="4.05"/>
      <ellipse class="cls-23" cx="56.77" cy="31.69" rx="7.79" ry="4.05"/>
      <ellipse class="cls-23" cx="55.54" cy="14.61" rx="7.79" ry="4.05"/>
      <ellipse class="cls-23" cx="60.47" cy="131.26" rx="7.79" ry="4.05" transform="translate(-82.15 154.61) rotate(-74.56)"/>
      <ellipse class="cls-23" cx="43.33" cy="127.65" rx="7.79" ry="4.05" transform="translate(-90.91 115.43) rotate(-66.05)"/>
      <ellipse class="cls-23" cx="27.71" cy="122.21" rx="7.79" ry="4.05" transform="translate(-89.71 78.43) rotate(-56.78)"/>
      <ellipse class="cls-23" cx="13.92" cy="111.35" rx="7.79" ry="4.05" transform="translate(-89.47 67.74) rotate(-60)"/>
      <ellipse class="cls-23" cx="268.61" cy="113.03" rx="4.05" ry="7.79" transform="translate(-22.54 125.6) rotate(-25.29)"/>
      <ellipse class="cls-23" cx="239.2" cy="128.02" rx="4.05" ry="7.79" transform="translate(-31.77 114.47) rotate(-25.29)"/>
      <ellipse class="cls-23" cx="255.3" cy="121.29" rx="4.05" ry="7.79" transform="translate(-27.35 120.7) rotate(-25.29)"/>
      <ellipse class="cls-23" cx="222.65" cy="132.36" rx="4.05" ry="7.79" transform="translate(-22.65 49.18) rotate(-12)"/>
      <ellipse class="cls-23" cx="246.43" cy="83.58" rx="4.05" ry="7.79" transform="translate(65.32 270.43) rotate(-64.63)"/>
      <ellipse class="cls-23" cx="256.02" cy="70.57" rx="4.05" ry="7.79" transform="translate(129.08 303.84) rotate(-76.86)"/>
      <ellipse class="cls-23" cx="263.66" cy="55.99" rx="4.05" ry="7.79" transform="translate(149.18 300.02) rotate(-76.86)"/>
      <ellipse class="cls-23" cx="221.9" cy="48.59" rx="4.05" ry="7.79" transform="translate(141.66 261.1) rotate(-81.67)"/>
      <ellipse class="cls-23" cx="224.43" cy="31.31" rx="4.05" ry="7.79" transform="translate(177.69 253.04) rotate(-86.04)"/>
      <path class="cls-23" d="M218.99,15.27c0-2.24,3.49-4.05,7.79-4.05,4.3,0,7.79,1.81,7.79,4.05s-3.49,4.05-7.79,4.05c-4.3,0-7.79-1.81-7.79-4.05Z"/>
      <path class="cls-28" d="M78.43,96.55s-55.83-1.16-73.44-7.48c-17.61-6.31,12.9,36.55,67.26,44.86l6.18-37.38Z"/>
      <path class="cls-20" d="M93.61,79.06S39.14,56.06,24.16,43.28c-14.98-12.78-.86,39.01,49.52,68.08l19.94-32.29Z"/>
      <path class="cls-24" d="M115.25,63.75S74.27,21.12,65.55,3.47c-8.72-17.65-16.18,35.51,18.65,82.09l31.06-21.81Z"/>
      <path class="cls-28" d="M203.72,96.55s55.83-1.16,73.44-7.48c17.61-6.31-12.9,36.55-67.26,44.86l-6.18-37.38Z"/>
      <path class="cls-20" d="M188.54,79.06s54.47-23,69.45-35.78c14.98-12.78,.86,39.01-49.52,68.08l-19.94-32.29Z"/>
      <path class="cls-24" d="M166.9,63.75S207.88,21.12,216.6,3.47c8.72-17.65,16.18,35.51-18.65,82.09l-31.06-21.81Z"/>
      <path class="cls-22" d="M175.19,69.57c.51,.36,43.03-23.17,43.03-23.17-.81,3.59-13.82,36.2-18.84,39.16s-24.19-15.98-24.19-15.98Z"/>
      <path class="cls-21" d="M246.77,78.27l-58.23,2.81,19.94,30.27s20.88-10,38.29-33.09Z"/>
      <path class="cls-21" d="M93.61,79.06l-58.24-.79s15.27,21.14,38.3,33.09,19.94-32.29,19.94-32.29Z"/>
      <path class="cls-16" d="M64.56,48.31l48.65,16.87-28.13,23.26s-13.99-20.07-20.52-40.14Z"/>
      <path class="cls-11" d="M210.05,117.24c0,39.5-29.39,48.6-68.9,48.6s-68.9-9.1-68.9-48.6S106.01,45.71,141.15,45.71c33.15,0,68.9,32.02,68.9,71.53Z"/>
      <path class="cls-10" d="M115.37,164.08s-41.76-8.29-27.8-62.62c0,0,10.98-43.78,58.76-55.49l-5.18-.26c-35.14,0-68.9,32.94-68.9,72.44,0,28.5,15.63,40.3,38.99,45.15l4.13,.77Z"/>
      <ellipse class="cls-4" cx="97.26" cy="104.9" rx="7.06" ry="8.35"/>
      <ellipse class="cls-2" cx="185.76" cy="104.9" rx="7.06" ry="8.35"/>
      <path class="cls-19" d="M158.1,61.54c-.53-.31-1.11-.5-1.71-.62-1.88-1.2-5.13-2-8.85-2-5.83,0-10.55,1.95-10.55,4.36s.82,4.36,6.65,4.36c.01,0,.02,0,.03,0,1.48,.18,5.73-.93,9.35,1.16,4.94,2.85,8.88,3.57,10.22,1.25,1.34-2.32-.21-5.67-5.15-8.52Z"/>
      <ellipse class="cls-10" cx="173.35" cy="76.32" rx="4.34" ry="6.29" transform="translate(-3.19 144.93) rotate(-45)"/>
      <path class="cls-10" d="M185.15,132.52c-1.69-.98-4.87,2.74-9.19,4.9H106.38c-3.36-1.66-6.56-5.73-7.98-4.9-1.69,.98-1.48,4.53,.49,7.93,1.96,3.4,8.2,3.28,10.36,3.45h65.05c3.41,0,8.39-.05,10.36-3.45,1.96-3.4,2.18-6.96,.49-7.93Z"/>
    </g>
  </g>
</svg>