<?xml version="1.0" encoding="utf-8"?>
<!-- Generator: Adobe Illustrator 26.4.1, SVG Export Plug-In . SVG Version: 6.00 Build 0)  -->
<svg version="1.1" id="Capa_2_00000121981237057247582530000018118648156527857594_"
	 xmlns="http://www.w3.org/2000/svg" xmlns:xlink="http://www.w3.org/1999/xlink" x="0px" y="0px" viewBox="0 0 453.6 107.5"
	 style="enable-background:new 0 0 453.6 107.5;" xml:space="preserve">
<style type="text/css">
	.st0{fill:#F6E0E0;}
	.st1{fill:#703D4A;}
	.st2{fill:#8A553A;}
	.st3{fill:#3C1F19;}
	.st4{fill:#3D1E18;}
	.st5{fill:#3C1F1B;}
	.st6{fill:#3D1E1B;}
	.st7{fill:#3D1F18;}
	.st8{fill:#3E1E18;}
	.st9{fill:#3E1F18;}
</style>
<path class="st0" d="M-0.3,54.2c0-0.4,0.1-0.8,0.3-1.1c0,0,4.3-6.2,3.6-16C2.5,22.1,7.1,13,16.1,12.3c3-0.2,3.3-1.4,4-3.6
	c1.3-4.3,3.4-8.2,14.2-8.2h384.4c10.8,0,12.9,3.9,14.2,8.2c0.7,2.3,1,3.4,4,3.6c9.1,0.8,13.6,9.8,12.5,24.8
	c-0.7,9.8,3.5,15.9,3.6,16c0.5,0.6,0.5,1.5,0,2.2c-0.1,0.1-4.3,6.2-3.6,16c1.1,15-3.5,24.1-12.5,24.8c-3,0.2-3.3,1.4-4,3.7
	c-1.3,4.3-3.4,8.2-14.2,8.2H34.3c-10.8,0-12.9-3.9-14.2-8.2c-0.7-2.3-1-3.4-4-3.7C7,95.3,2.5,86.3,3.6,71.2C4.3,61.4,0,55.3,0,55.3
	C-0.2,55-0.3,54.6-0.3,54.2L-0.3,54.2z"/>
<path class="st1" d="M0,53.8c0-0.4,0.1-0.8,0.3-1.1c0,0,4.3-6.2,3.6-16c-1.1-15,3.5-24.1,12.5-24.9c3-0.2,3.3-1.4,4-3.6
	C21.8,3.9,23.8,0,34.7,0H419c10.8,0,12.9,3.9,14.2,8.2c0.7,2.3,1,3.4,4,3.6c9.1,0.8,13.6,9.8,12.5,24.9c-0.7,9.8,3.5,15.9,3.6,16
	c0.5,0.6,0.5,1.5,0,2.2c-0.1,0.1-4.3,6.2-3.6,15.9c1.1,15-3.5,24.1-12.5,24.8c-3,0.2-3.3,1.4-4,3.7c-1.3,4.3-3.4,8.2-14.2,8.2H34.6
	c-10.8,0-12.9-3.9-14.2-8.2c-0.7-2.3-1-3.4-4-3.7c-9-0.7-13.6-9.8-12.5-24.8c0.7-9.9-3.5-15.9-3.6-16C0.1,54.5,0,54.1,0,53.8L0,53.8
	z M7.4,39c0,7.4-2.5,12.6-3.7,14.8c1.4,2.4,4.2,8.5,3.6,17.3c-0.6,7.5-0.1,20.2,9.4,21c5.3,0.4,6.2,3.6,7,6.1
	c0.9,2.9,1.7,5.7,10.9,5.7H419c9.2,0,10-2.8,10.9-5.7c0.8-2.5,1.7-5.7,7-6.1c9.5-0.8,9.9-13.5,9.4-21c-0.6-8.8,2.2-14.9,3.6-17.3
	c-1.4-2.4-4.2-8.5-3.6-17.3c0.5-7.5,0.1-20.2-9.4-21c-5.3-0.4-6.2-3.6-7-6.1c-0.9-2.9-1.7-5.7-10.9-5.7H34.6c-9.2,0-10,2.8-10.9,5.7
	c-0.8,2.5-1.7,5.7-7,6.1c-9.5,0.8-9.9,13.5-9.4,21C7.4,37.3,7.4,38.2,7.4,39z"/>
<path class="st2" d="M7.3,53.8c0-0.1,0-0.1,0.1-0.2c1.4-3,3.1-8,3.1-14.6c0-0.9,0-1.8-0.1-2.8c-0.1-1.3-0.1-2.5-0.1-3.7
	c0-8.8,2.3-13.5,6.7-13.8c7.4-0.6,8.9-5.9,9.7-8.4C27.4,8,28,6.8,34.6,6.8H419c6.6,0,7.2,1.2,7.9,3.4c0.8,2.5,2.3,7.8,9.7,8.4
	c4.4,0.4,6.7,5,6.7,13.8c0,1.2,0,2.4-0.1,3.7c-0.1,0.9-0.1,1.8-0.1,2.8c0,6.6,1.7,11.5,3.1,14.6c0,0.1,0,0.3,0,0.4
	c-1.4,3-3.1,8-3.1,14.6c0,0.9,0,1.8,0.1,2.8c0.1,1.3,0.1,2.5,0.1,3.7c0,8.8-2.3,13.4-6.7,13.8c-7.4,0.6-8.9,5.9-9.7,8.4
	c-0.7,2.3-1.3,3.4-7.9,3.4H34.6c-6.6,0-7.2-1.2-7.9-3.4c-0.8-2.5-2.3-7.8-9.7-8.4c-4.4-0.4-6.7-5-6.7-13.8c0-1.2,0.1-2.4,0.1-3.7
	c0.1-0.9,0.1-1.8,0.1-2.8C10.5,62,8.8,57,7.4,54C7.4,53.9,7.3,53.8,7.3,53.8L7.3,53.8z M11.4,39c0,6.6-1.7,11.7-3.1,14.8
	c1.5,3.1,3.1,8.2,3.1,14.8c0,0.9,0,1.9-0.1,2.8c-0.1,1.2-0.1,2.5-0.1,3.7c0,8.2,2,12.6,5.9,12.9c7.9,0.7,9.6,6.3,10.4,9
	c0.5,1.8,0.9,2.8,7.1,2.8H419c6.3,0,6.6-1,7.1-2.8c0.8-2.7,2.5-8.3,10.5-9c3.9-0.3,5.9-4.7,5.9-12.9c0-1.2,0-2.4-0.1-3.7
	c-0.1-0.9-0.1-1.9-0.1-2.8c0-6.6,1.7-11.7,3.1-14.8c-1.5-3.1-3.1-8.2-3.1-14.8c0-0.9,0-1.9,0.1-2.8c0.1-1.2,0.1-2.5,0.1-3.7
	c0-8.2-2-12.6-5.9-12.9c-7.9-0.7-9.6-6.3-10.5-9c-0.5-1.8-0.9-2.8-7.1-2.8H34.6c-6.3,0-6.6,1-7.1,2.8c-0.8,2.7-2.5,8.4-10.5,9
	c-3.9,0.3-5.9,4.7-5.9,12.9c0,1.2,0.1,2.4,0.1,3.6C11.4,37.1,11.4,38,11.4,39L11.4,39z"/>
<path class="st3" d="M241.8,30.6c1-0.1,2.1-0.1,3.2-0.3c4.2,13.5,8.4,27.2,13.1,40.6c0.6,1.7,1.1,3.4,2.1,5c1.6,1.3,3.5,2.2,5.2,3.3
	c-5.6,0.6-11.4,0.5-17,0c1.5-1.1,3.1-2.2,4.7-3.2c-1.3-4.9-2.8-9.6-4.3-14.3c-4.1,0-8.1,0-12.2,0c0.2-0.8,0.6-2.3,0.8-3.1
	c3.4-0.1,6.8,0,10.3-0.1c-1.8-6.1-3.8-12.3-5.8-18.4c-5.2,12.6-9.3,26.1-14.5,38.8c-2.6,0.6-5.4,0.8-8.1,0.8c0-3.1,0-6.1-0.1-9.2
	c1.7-0.1,3.5-0.1,5.2-0.1c-0.1,1.8-0.2,3.6-0.3,5.4c-0.9-1.3-1.8-2.7-2.6-4c0,2.2,0,4.5,0.1,6.6c1.5-0.9,3.2-1.8,3.8-3.7
	C230.8,59.8,236.1,45.2,241.8,30.6L241.8,30.6z"/>
<path class="st4" d="M340,79.2c-4.5-0.3-9.3-0.3-12.9-3.2c-5.7-4-7.4-11.2-7.8-17.8c-0.1-6.9,0.4-14.3,4.7-19.8
	c5.4-6.1,15.2-6.1,22-2.3c7.2,4.7,8.4,14.2,8.2,22.1c-0.1,7.8-4.3,18.2-12.8,20.8l1.8,2.1c4.9-1.3,9.8-3.3,12.8-7.7
	c6.5-8.3,7.4-20.2,3.4-29.9c-2.6-6.6-8.9-11.1-15.8-12.3c-8.4-1.4-17.6,0-24.3,5.5c-7.9,7.3-9.1,19.3-6.1,29.2
	c1.7,6.3,6.4,11.4,12.4,13.7c2.8,1.3,7.7,1.4,11.2,2.1c1.4,0.3,5.6-0.5,7-0.9c2.3-0.6-0.2-0.4,0,0c1.7,0-2.1-1.9-0.5-2.4
	C340.5,79.2,342,78.9,340,79.2z"/>
<path class="st5" d="M50.4,30.3c4.6-0.1,9.3,0,13.9,0c0.3,11.4-0.1,22.7,0.5,34c0.4,4.3,2,9.3,6.4,11c5.1,1.8,11.4,1.4,15.8-1.9
	c3.8-3.6,4.2-9.3,4.2-14.2c-0.1-8.7,0.3-17.4-0.3-25.9c-1.9-0.8-3.7-1.5-5.5-2.7c5.4-0.4,11-0.8,16.2,0.3c-1.9,0.9-3.8,1.7-5.9,2.6
	c-0.1,8.9,0,17.9-0.1,26.8c-0.3,5.7-1.5,12-6.1,16c-5.1,3.8-11.9,4.3-18,3.4c-5-0.9-10-3.7-12-8.6c-2-4.3-1.8-9.3-1.8-14
	c0-7.9,0.3-15.8-0.3-23.8c-1.7-0.5-3.3-0.9-5-1.3c0,2.3,0.1,4.6,0.3,6.9c1-1.3,1.9-2.7,2.9-4c0.1,1.8,0.1,3.7,0.3,5.5
	c-1.9,0-3.8-0.1-5.7-0.1C50.4,36.9,50.4,33.6,50.4,30.3L50.4,30.3z"/>
<path class="st6" d="M372.2,32.9c7.6-4.4,16.8-2.9,25.2-1.7c-0.5,3.9-1.2,7.7-2.1,11.5c-0.4-0.1-1.1-0.3-1.5-0.4
	c-0.9-2.9-1.6-5.9-2.4-8.8c-4-0.7-8.3-1.6-12.1,0c-4.8,1.9-7.1,8.5-3.9,12.8c2.8,4.1,8,5.2,12.1,7.3c4.7,2.1,9.6,5.2,11.3,10.3
	c1.6,6.3-1.6,13.6-7.7,16.1c-8,3.3-16.8,1.7-25.1,0.1c0.7-4.3,1.2-8.5,1.9-12.9c2,0,4.1,0,6.1,0c0,1.7,0,3.6,0,5.5
	c-1.3-1.3-2.8-2.8-4.1-4.1c0.4,3.1,0.8,6.3,2.1,9.2c4.4,1.7,9.5,2.1,13.9,0.5c5.6-2.1,7.3-10.9,2.5-14.8c-6-5.1-14.5-5.7-19.7-11.7
	C363.6,46.1,365.9,36.5,372.2,32.9L372.2,32.9L372.2,32.9z"/>
<path class="st7" d="M156,31.1c6.1,0.1,12.4-1,18.5,0.5c-1.8,0.9-3.7,1.8-5.6,2.6c0.1,14-0.3,28.1,0.1,42.3c1.5,0.4,3.2,0.8,4.9,1.1
	c0-2.6-0.1-5-0.6-7.4c-0.4,1-1,3.1-1.3,4.1c-0.4-0.1-1.1-0.4-1.5-0.5c0.1-1.5,0.1-2.9,0.3-4.5c1.8,0,3.6,0,5.5-0.1
	c0,3.4,0,6.8,0,10.2c-6.8-0.5-13.4,0.1-20.2-0.4c1.7-1.3,3.7-2.2,5.6-2.8c0.4-13.9,0-27.8,0.1-41.9C159.8,33.2,157.9,32.3,156,31.1
	L156,31.1L156,31.1z"/>
<path class="st8" d="M122,54.2c3.7-0.8,8.3-0.4,11.2-3.2c3.1-3.8,3.3-10,0.9-14.2c-3.1-4.5-9.1-3.6-13.7-3.6
	c-0.3,14,0,28.2-0.1,42.4c1.8,0.9,3.7,1.8,5.2,3.1c-6.1,0.4-12.1,0.5-18.3-0.1c1.9-1.1,4-2,5.9-2.9c0-13.8,0.1-27.7-0.1-41.5
	c-1.4-1.5-3.7-1.9-5.5-2.9l0,0l0,0c4.9-1.4,9.8-0.6,14.8-1c5.5-0.1,11.6-0.5,16.5,2.7c5.4,3.6,5.6,11.5,2.2,16.5
	c-2,3.1-5.5,4.5-8.7,6"/>
<path class="st8" d="M127.5,76.6c3.7-0.8,8.3-0.4,11.2-3.2c3.1-3.8,3.3-10,0.9-14.2c-3.1-4.5-9.1-3.6-13.7-3.6l-12.9-2
	c4.9-1.4,9.8-0.6,14.8-1c5.5-0.1,11.6-0.5,16.5,2.7c5.4,3.6,5.6,11.5,2.2,16.5c-2,3.1-5.5,4.5-8.7,6l-8.3,1.3h-10"/>
<path class="st9" d="M308.4,80.4c0-3.6,0-7.1,0-10.6c-1.2,0-2.4,0.1-3.6,0.1c0,1.5-0.1,3.1-0.2,4.6c0.3,0.1,0.8,0.4,1.1,0.5
	c0.2-1.1,0.7-3.2,0.9-4.3c0.4,2.6,0.4,5.1,0.4,7.7c-1.1-0.4-2.2-0.7-3.2-1.1c-0.3-14.6-0.1-29.3-0.1-43.9c1.2-0.8,2.5-1.6,3.7-2.6
	c-4-1.5-8.2-0.4-12.2-0.5c1.2,1.2,2.6,2.2,3.9,3.3c-0.1,11.4,0,22.9-0.1,34.4c-5-12.1-10.1-27.4-14.9-37.7
	c-4.8-0.7-9.7-0.4-14.5-0.2c1.8,1.4,3.8,2.2,5.9,2.9c0.2,14.7,0.1,29.3,0,44c-1.7,0.4-3.3,0.9-5,1.4c0-2.2,0-4.4,0-6.5
	c1.1,1.3,2.2,2.7,3.3,4c0.1-1.8,0.3-3.6,0.4-5.3c-2,0-4,0-6.1,0c0,3.2,0,6.4,0,9.6c4-0.2,7.9-0.2,11.8-0.3
	c0.4-13.5-0.3-27.1,0.4-40.6c4,7.6,6.7,15.8,10.3,23.6c2.4,5,4,10.4,6.6,15.2c-0.7,0.5-1.4,1.1-2,1.9c1.1,0.1,2.2,0.2,3.2,0.2
	c0.1,0.1,0.1,0.2,0.2,0.3c0.3-0.1,0.6-0.2,0.9-0.3C302.4,80.2,305.4,80,308.4,80.4z"/>
<path class="st7" d="M209,28"/>
<path class="st7" d="M210.2,72.7c-0.3,1.5-0.3,1.6-0.5,3.2c0.4,0.2,1.1,0.5,1.5,0.6c0.3-1,1-1.7,1.5-2.7c0.2,1.9,0.4,2.3,0.3,3.6
	c-0.1,0-0.2,0.1-0.3,0.1c-0.2,0.1-0.3,0-1.4,0.2c-4.5-0.3-9.3-0.3-12.9-3.2c-5.7-4-7.4-11.2-7.8-17.8c-0.1-6.9,0.4-14.3,4.7-19.8
	c4.1-4.7,10.9-4.8,16.8-3.1l0.6,2.1l-2-0.6v2.4l3.9,0.8v-3.7c0,0,0-0.1,0-0.1v-4.9l-2.4-0.3c-7.7-0.7-15.7,0.9-21.7,5.8
	c-7.9,7.3-9.1,19.3-6.1,29.2c1.7,6.3,6.4,11.4,12.4,13.7c2.8,1.3,7.7,1.4,11.2,2.1c1.2,0.3,4.7-0.3,6.4-0.7l0,0c0.1,0,0.2,0,0.2-0.1
	v-1.8c0.3-1.6,0.8-2.1,1-4.7C213.8,73,212,72.9,210.2,72.7z"/>
</svg>
